<?xml version="1.0" encoding="utf-8"?>
<!-- Generator: Adobe Illustrator 25.2.3, SVG Export Plug-In . SVG Version: 6.00 Build 0)  -->
<svg version="1.1" id="Layer_1" xmlns="http://www.w3.org/2000/svg" xmlns:xlink="http://www.w3.org/1999/xlink" x="0px" y="0px"
	 viewBox="0 0 125 29.6" style="enable-background:new 0 0 125 29.6;" xml:space="preserve">
<style type="text/css">
	.st0{fill:url(#SVGID_1_);}
	.st1{fill:url(#SVGID_2_);}
	.st2{fill:url(#SVGID_3_);}
	.st3{opacity:0.25;fill:url(#SVGID_4_);}
	.st4{opacity:0.25;fill:url(#SVGID_5_);}
	.st5{fill:url(#SVGID_6_);}
	.st6{fill:url(#SVGID_7_);}
	.st7{fill:url(#SVGID_8_);}
	.st8{fill:url(#SVGID_9_);}
	.st9{opacity:0.5;fill:url(#SVGID_10_);}
	.st10{fill:url(#SVGID_11_);}
	.st11{fill:url(#SVGID_12_);}
	.st12{fill:url(#SVGID_13_);}
	.st13{opacity:0.5;fill:url(#SVGID_14_);}
</style>
<g>
	<g>
		<linearGradient id="SVGID_1_" gradientUnits="userSpaceOnUse" x1="90.7706" y1="28.7371" x2="90.7706" y2="24.3423">
			<stop  offset="0" style="stop-color:#25255A"/>
			<stop  offset="0.75" style="stop-color:#5C2D91"/>
			<stop  offset="1" style="stop-color:#7F529E"/>
		</linearGradient>
		<path class="st0" d="M93.7,24c-0.4-0.4-0.9-0.6-1.5-0.6c-0.6,0-1.2,0.2-1.5,0.6c-0.4,0.4-0.6,0.9-0.6,1.5v3.7
			c0,0.2,0.2,0.4,0.4,0.4c0.2,0,0.4-0.2,0.4-0.4v-1.5h2.7v1.5c0,0.2,0.2,0.4,0.4,0.4c0.2,0,0.4-0.2,0.4-0.4v-3.7
			C94.3,24.9,94.1,24.4,93.7,24z M93.5,27h-2.7v-1.5c0-1.2,0.9-1.4,1.4-1.4c0.5,0,1.4,0.2,1.4,1.4V27z M99.7,29l-1.7-2.5l1.7-2.4
			c0-0.1,0.1-0.1,0.1-0.2c0-0.2-0.2-0.4-0.4-0.4c-0.1,0-0.2,0.1-0.3,0.2l-1.5,2.2l-1.5-2.2c-0.1-0.1-0.2-0.2-0.3-0.2
			c-0.2,0-0.4,0.2-0.4,0.4c0,0.1,0,0.2,0.1,0.2l1.7,2.4L95.2,29c0,0.1-0.1,0.1-0.1,0.2c0,0.2,0.2,0.4,0.4,0.4c0.1,0,0.2-0.1,0.3-0.2
			l1.6-2.3l1.6,2.3c0.1,0.1,0.2,0.2,0.3,0.2c0.2,0,0.4-0.2,0.4-0.4C99.7,29.2,99.7,29.1,99.7,29z M88.4,23.7
			c-0.2-0.1-0.5-0.1-0.6-0.1c-0.4,0-0.9,0.2-1.1,0.7c-0.2,0.4-1,2.3-1,2.4c-0.1,0.2-0.1,0.2-0.2,0.2c-0.1,0-0.1,0-0.2-0.2
			c0-0.1-0.9-2.1-1-2.4c-0.2-0.5-0.6-0.7-1.1-0.7c-0.2,0-0.4,0-0.6,0.1c-0.6,0.3-0.7,0.8-0.7,1.1v4l0,0.4c0,0.2,0.2,0.4,0.4,0.4
			c0.2,0,0.4-0.2,0.4-0.4l0-4l0,0v-0.4c0-0.2,0.1-0.4,0.3-0.5c0.2-0.1,0.4,0,0.5,0.3c0.1,0.3,0.6,1.4,0.8,2l0.1,0.2
			c0.1,0.4,0.3,0.8,1.1,0.8c0.8,0,1-0.5,1.1-0.8l0.1-0.2c0.2-0.6,0.7-1.7,0.8-2c0.1-0.3,0.4-0.3,0.5-0.3c0.2,0.1,0.3,0.3,0.3,0.5
			l0,0.4l0,0l0,4c0,0.2,0.2,0.4,0.4,0.4c0.2,0,0.4-0.2,0.4-0.4v-0.4v-4C89.1,24.5,89,23.9,88.4,23.7z"/>
	</g>
</g>
<g>
	<linearGradient id="SVGID_2_" gradientUnits="userSpaceOnUse" x1="83.414" y1="15.4292" x2="83.414" y2="2.4209">
		<stop  offset="0" style="stop-color:#25255A"/>
		<stop  offset="0.75" style="stop-color:#5C2D91"/>
		<stop  offset="1" style="stop-color:#7F529E"/>
	</linearGradient>
	<path class="st1" d="M124.8,0.2H46.9v13.6c0,2.3-1.8,4.6-4.8,4.6H120h0c3,0,4.8-2.4,4.8-4.6L124.8,0.2L124.8,0.2z"/>
	<g>
		<g>
			<linearGradient id="SVGID_3_" gradientUnits="userSpaceOnUse" x1="75.8544" y1="4.3863" x2="75.8544" y2="14.2066">
				<stop  offset="0" style="stop-color:#FFFFFF"/>
				<stop  offset="0.2776" style="stop-color:#FCFCFC"/>
				<stop  offset="0.5005" style="stop-color:#F2F2F2"/>
				<stop  offset="0.7044" style="stop-color:#E1E1E2"/>
				<stop  offset="0.8959" style="stop-color:#C9C9CB"/>
				<stop  offset="1" style="stop-color:#B9B9BB"/>
			</linearGradient>
			<path class="st2" d="M55.3,8.6c-0.8,0-1.4-0.2-1.8-0.5c-0.3-0.3-0.3-0.6-0.3-0.6c0,0,0-0.7,0.5-1.3c0.4-0.4,0.9-0.6,1.7-0.6
				c0.7,0,1.2,0.2,1.6,0.6c0.5,0.6,0.5,1.4,0.5,1.4c0,0.3,0.3,0.6,0.6,0.6c0.3,0,0.6-0.3,0.6-0.6c0-3.2-3.1-3.2-3.3-3.2h0
				c-3.2,0-3.3,2.7-3.3,3c0,0.9,0.7,2.4,3.3,2.4c0.9,0,1.5,0.2,1.9,0.6c0.3,0.3,0.3,0.7,0.3,0.8c0,0.2,0,0.7-0.4,1.2
				c-0.4,0.4-1,0.6-1.8,0.6c0,0,0,0,0,0c-0.7,0-1.3-0.2-1.6-0.6c-0.4-0.4-0.5-1-0.5-1.3c0-0.3-0.3-0.6-0.6-0.6
				c-0.3,0-0.6,0.3-0.6,0.6c0,0.8,0.3,1.6,0.8,2.1c0.6,0.6,1.5,1,2.5,1c2.5,0,3.4-1.6,3.4-3C58.7,9.6,57.4,8.6,55.3,8.6z M96.3,8.6
				c-0.8,0-1.4-0.2-1.8-0.5c-0.3-0.3-0.3-0.6-0.3-0.6c0,0,0-0.7,0.4-1.3c0.4-0.4,0.9-0.6,1.7-0.6c0.7,0,1.2,0.2,1.6,0.6
				c0.5,0.6,0.5,1.4,0.5,1.4c0,0.3,0.3,0.6,0.6,0.6c0.3,0,0.6-0.3,0.6-0.6c0-3.2-3.1-3.2-3.3-3.2h0c-3.2,0-3.3,2.7-3.3,3
				c0,0.9,0.7,2.4,3.3,2.4c0.9,0,1.5,0.2,1.9,0.6c0.3,0.3,0.3,0.7,0.3,0.8c0,0.2,0,0.7-0.4,1.2c-0.4,0.4-1,0.6-1.8,0.6c0,0,0,0,0,0
				c-0.7,0-1.3-0.2-1.6-0.6c-0.4-0.4-0.5-1-0.5-1.3c0-0.3-0.3-0.6-0.6-0.6c-0.3,0-0.6,0.3-0.6,0.6c0,0.8,0.3,1.6,0.8,2.1
				c0.6,0.6,1.5,1,2.5,1c2.5,0,3.4-1.6,3.4-3C99.7,9.6,98.4,8.6,96.3,8.6z M63.3,4.4c-1.9,0-3.3,1.4-3.3,3.3l0,5.7
				c0,0.3,0.3,0.6,0.6,0.6c0.3,0,0.6-0.3,0.6-0.6V11h2.1c1.8,0,3.3-1.5,3.3-3.3C66.6,5.9,65.1,4.4,63.3,4.4z M63.3,9.8h-2l0-2.1
				c0-1.3,0.8-2.1,2-2.1c1.2,0,2.1,0.9,2.1,2.1C65.4,8.8,64.4,9.8,63.3,9.8z M72.4,4.4c-2.7,0-4.9,2.2-4.9,4.9
				c0,2.7,2.2,4.9,4.9,4.9c2.7,0,4.9-2.2,4.9-4.9C77.3,6.6,75.1,4.4,72.4,4.4z M72.4,13c-2.1,0-3.7-1.7-3.7-3.7
				c0-2.1,1.7-3.7,3.7-3.7c2,0,3.7,1.7,3.7,3.7C76.1,11.3,74.5,13,72.4,13z M82.8,10.8c1.3-0.5,2.1-1.7,2.1-3.1
				c0-1.8-1.5-3.3-3.3-3.3c-1.9,0-3.3,1.4-3.3,3.3l0,5.7c0,0.3,0.3,0.6,0.6,0.6c0.3,0,0.6-0.3,0.6-0.6V11h2l1.6,2.7
				c0.1,0.1,0.2,0.2,0.4,0.3c0.2,0,0.3,0,0.5-0.1c0.1-0.1,0.3-0.2,0.3-0.4c0-0.2,0-0.3-0.1-0.5L82.8,10.8z M79.5,9.8l0-2.1
				c0-1.3,0.8-2.1,2.1-2.1c1.2,0,2.1,0.9,2.1,2.1c0,1.2-0.9,2.1-2.1,2.1H79.5z M92.3,5.2c0,0.3-0.3,0.6-0.6,0.6h-2.1v7.6
				c0,0.3-0.3,0.6-0.6,0.6c-0.3,0-0.6-0.3-0.6-0.6V5.8h-2.1c-0.3,0-0.6-0.3-0.6-0.6c0-0.3,0.3-0.6,0.6-0.6h5.5
				C92,4.6,92.3,4.9,92.3,5.2z"/>
		</g>
	</g>
	
		<linearGradient id="SVGID_4_" gradientUnits="userSpaceOnUse" x1="9412.9424" y1="9.2964" x2="9339.7949" y2="9.2964" gradientTransform="matrix(-1 0 0 1 9442.1572 0)">
		<stop  offset="0" style="stop-color:#211F1F"/>
		<stop  offset="0.3" style="stop-color:#211F1F;stop-opacity:0"/>
		<stop  offset="1" style="stop-color:#211F1F;stop-opacity:0"/>
	</linearGradient>
	<polygon class="st3" points="41.8,0.2 51.9,0.2 51.9,18.4 41.8,18.4 	"/>
	
		<linearGradient id="SVGID_5_" gradientUnits="userSpaceOnUse" x1="-2480.8809" y1="9.2964" x2="-2554.0212" y2="9.2964" gradientTransform="matrix(1 0 0 1 2603.3252 0)">
		<stop  offset="0" style="stop-color:#211F1F"/>
		<stop  offset="0.3" style="stop-color:#211F1F;stop-opacity:0"/>
		<stop  offset="1" style="stop-color:#211F1F;stop-opacity:0"/>
	</linearGradient>
	<rect x="99.8" y="0.2" class="st4" width="10" height="18.2"/>
	<linearGradient id="SVGID_6_" gradientUnits="userSpaceOnUse" x1="23.5229" y1="-6.579571e-02" x2="23.5229" y2="18.3004">
		<stop  offset="0" style="stop-color:#FFFFFF"/>
		<stop  offset="1" style="stop-color:#B9B9BB"/>
	</linearGradient>
	<path class="st5" d="M0.2,0.2v13.5c0,2.3,1.8,4.8,4.8,4.8h37.1c3,0,4.8-2.4,4.8-4.6V0.2H0.2z"/>
	
		<linearGradient id="SVGID_7_" gradientUnits="userSpaceOnUse" x1="11984.3564" y1="-979.8998" x2="11984.3564" y2="-992.9081" gradientTransform="matrix(-1 0 0 -1 12099.1338 -976.7363)">
		<stop  offset="0" style="stop-color:#FFFFFF"/>
		<stop  offset="1" style="stop-color:#BABABC"/>
	</linearGradient>
	<path class="st6" d="M124.8,0.2h-15.2h0c-3,0-4.8,2.4-4.8,4.6v13.6h0H120h0c3,0,4.8-2.4,4.8-4.6L124.8,0.2L124.8,0.2z"/>
	<g>
		<g>
			<linearGradient id="SVGID_8_" gradientUnits="userSpaceOnUse" x1="114.7764" y1="15.108" x2="114.7764" y2="3.4849">
				<stop  offset="0" style="stop-color:#25255A"/>
				<stop  offset="0.75" style="stop-color:#5C2D91"/>
				<stop  offset="1" style="stop-color:#7F529E"/>
			</linearGradient>
			<path class="st7" d="M118.4,5.5l-3.2,9.6h-2.4l3.4-9.5h-4.6l-0.5-2.1h5.8c0.9,0,1.6,0.7,1.6,1.6C118.5,5.2,118.4,5.4,118.4,5.5z"
				/>
		</g>
	</g>
	<g>
		<g>
			<linearGradient id="SVGID_9_" gradientUnits="userSpaceOnUse" x1="23.3333" y1="14.2066" x2="23.3333" y2="1.3028">
				<stop  offset="0" style="stop-color:#25255A"/>
				<stop  offset="0.75" style="stop-color:#5C2D91"/>
				<stop  offset="1" style="stop-color:#7F529E"/>
			</linearGradient>
			<path class="st8" d="M9.9,4.5C7.7,4.5,6.4,5.9,6,6.5V1.8c0-0.3-0.2-0.5-0.5-0.5C5.2,1.3,5,1.5,5,1.8v7.8c0,2.3,1.8,4.7,4.8,4.7
				c2.9,0,4.8-2.5,4.8-4.9C14.7,6.4,12.2,4.5,9.9,4.5z M9.8,13.2C7.7,13.2,6,11.5,6,9.3c0-2.1,1.7-3.9,3.9-3.9
				c2.1,0,3.9,1.7,3.9,3.9C13.7,11.5,12,13.2,9.8,13.2z M24.9,9.4c0,0.2-0.1,0.5-0.5,0.5h-5c-0.3,0-0.5-0.2-0.5-0.5s0.2-0.5,0.5-0.5
				l4.5,0c-0.2-1.9-1.9-3.4-3.8-3.4c-2.1,0-3.9,1.7-3.9,3.9c0,2.1,1.7,3.9,3.9,3.9c1.4,0,2.6-0.7,3.3-1.9c0.1-0.1,0.2-0.2,0.3-0.2
				c0.1,0,0.3,0,0.4,0.1c0.2,0.1,0.3,0.4,0.1,0.7c-0.9,1.4-2.4,2.3-4.1,2.3c-2.7,0-4.8-2.2-4.8-4.8c0-2.7,2.2-4.8,4.8-4.8
				C22.7,4.6,24.9,6.7,24.9,9.4z M27.6,13.4L27.6,13.4c0,0.4-0.4,0.8-0.9,0.8c0,0,0,0,0,0c-0.5,0-0.9-0.4-0.9-0.8V5.4
				c0-0.4,0.4-0.8,0.9-0.8c0,0,0,0,0,0c0.5,0,0.9,0.4,0.9,0.8V13.4z M39.8,13.9c-0.5,0.2-0.9,0.3-1.3,0.3c-1.3,0-2.1-0.8-2.4-1.2
				c-0.3-0.5-3.6-5.6-3.7-5.9c0,0-0.4-0.7-1.1-0.7c-1.2,0.1-1.1,1.1-1.1,1.2l0,5.8c0,0.5-0.4,0.8-0.9,0.8c0,0,0,0,0,0
				c-0.5,0-0.9-0.4-0.9-0.7V7.4c0,0,0-1.9,1.8-2.6c1.8-0.7,3.2,0.3,3.7,1.2l3.7,5.8c0,0,0.5,0.9,1.6,0.4c0.5-0.2,0.6-0.7,0.6-0.9v-6
				c0-0.4,0.4-0.8,0.9-0.8c0,0,0,0,0,0c0.5,0,0.9,0.4,0.9,0.8v6C41.6,11.3,41.7,13.2,39.8,13.9z"/>
		</g>
	</g>
	<g>
		<linearGradient id="SVGID_10_" gradientUnits="userSpaceOnUse" x1="62.4824" y1="5.3716" x2="62.4824" y2="13.2212">
			<stop  offset="0" style="stop-color:#E2E2E1;stop-opacity:0"/>
			<stop  offset="0.5" style="stop-color:#FFFFFF;stop-opacity:0.25"/>
			<stop  offset="1" style="stop-color:#E2E2E1;stop-opacity:0"/>
		</linearGradient>
		<rect x="0.2" y="5.4" class="st9" width="124.6" height="7.8"/>
		<linearGradient id="SVGID_11_" gradientUnits="userSpaceOnUse" x1="62.4824" y1="5.3716" x2="62.4824" y2="13.2212">
			<stop  offset="0" style="stop-color:#E2E2E1;stop-opacity:0"/>
			<stop  offset="0.5" style="stop-color:#FFFFFF;stop-opacity:0.25"/>
			<stop  offset="1" style="stop-color:#E2E2E1;stop-opacity:0"/>
		</linearGradient>
		<rect x="0.2" y="5.4" class="st10" width="124.6" height="7.8"/>
		<linearGradient id="SVGID_12_" gradientUnits="userSpaceOnUse" x1="62.4824" y1="5.3716" x2="62.4824" y2="13.2212">
			<stop  offset="0" style="stop-color:#E2E2E1;stop-opacity:0"/>
			<stop  offset="0.5" style="stop-color:#FFFFFF;stop-opacity:0.25"/>
			<stop  offset="1" style="stop-color:#E2E2E1;stop-opacity:0"/>
		</linearGradient>
		<rect x="0.2" y="5.4" class="st11" width="124.6" height="7.8"/>
	</g>
	<linearGradient id="SVGID_13_" gradientUnits="userSpaceOnUse" x1="62.4824" y1="0" x2="62.4824" y2="18.5787">
		<stop  offset="0" style="stop-color:#D1D3D4"/>
		<stop  offset="3.993058e-02" style="stop-color:#CDCED0"/>
		<stop  offset="0.192" style="stop-color:#C2C3C4"/>
		<stop  offset="0.4058" style="stop-color:#BCBCBE"/>
		<stop  offset="1" style="stop-color:#BABABC"/>
	</linearGradient>
	<path class="st12" d="M0,0v13.8c0,2.3,1.9,4.8,4.9,4.8h115.2c1.4,0,2.7-0.5,3.6-1.5c0.8-0.9,1.3-2,1.3-3.2V0H0z M119.8,18.2H5.2
		c-1.4,0-2.6-0.5-3.5-1.5c-0.8-0.9-1.3-2.1-1.3-3.2V0.3h124.3v13.3c0,1.1-0.5,2.3-1.3,3.1C122.4,17.7,121.2,18.2,119.8,18.2z"/>
	<linearGradient id="SVGID_14_" gradientUnits="userSpaceOnUse" x1="62.4824" y1="19.2677" x2="62.4824" y2="12.5267">
		<stop  offset="0" style="stop-color:#211F1F"/>
		<stop  offset="0.3" style="stop-color:#211F1F;stop-opacity:0"/>
		<stop  offset="1" style="stop-color:#211F1F;stop-opacity:0"/>
	</linearGradient>
	<path class="st13" d="M120.1,16.7H4.9c-3,0-4.9-2.5-4.9-4.8v1.9c0,2.3,1.9,4.8,4.9,4.8h115.2c1.4,0,2.7-0.5,3.6-1.5
		c0.8-0.9,1.3-2,1.3-3.2V12c0,1.2-0.5,2.3-1.3,3.2C122.7,16.2,121.5,16.7,120.1,16.7z"/>
</g>
</svg>
